Coordinates
version=1
nRows=14
nColumns=40
inDegrees=yes

Units are S.I. units (second, meters, Newtons, ...)
Angles are in degrees.

endheader
time	pelvis_tilt	pelvis_list	pelvis_rotation	pelvis_tx	pelvis_ty	pelvis_tz	hip_flexion_r	hip_adduction_r	hip_rotation_r	knee_angle_r	knee_angle_r_beta	ankle_angle_r	subtalar_angle_r	mtp_angle_r	hip_flexion_l	hip_adduction_l	hip_rotation_l	knee_angle_l	knee_angle_l_beta	ankle_angle_l	subtalar_angle_l	mtp_angle_l	lumbar_extension	lumbar_bending	lumbar_rotation	arm_flex_r	arm_add_r	arm_rot_r	elbow_flex_r	pro_sup_r	wrist_flex_r	wrist_dev_r	arm_flex_l	arm_add_l	arm_rot_l	elbow_flex_l	pro_sup_l	wrist_flex_l	wrist_dev_l
     25.72892857	     -4.77175581	     -4.68564826	      5.17305621	      0.85241501	      0.92243845	      0.49197521	      0.28282815	      4.26225915	    -19.63865672	     10.58071987	     10.58071987	     16.26862750	      5.76625165	     -3.89907200	     31.34177359	     -7.22432645	     -4.52177015	     18.97940395	     18.97940395	      3.61611504	     -5.46312860	      6.79132677	     -8.59407279	      8.03654055	      4.65227059	     39.35316777	    -16.49927055	     -3.76864813	     95.64002275	     44.40414614	      0.00000000	      0.00000000	    -11.87997244	     -7.35768595	      2.70237967	     31.04793412	     44.56659787	      0.00000000	      0.00000000
     25.74285714	     -4.69638949	     -4.61780036	      4.84516271	      0.85326809	      0.92089742	      0.49038322	     -0.19196160	      4.06485567	    -19.18227689	     10.94990936	     10.94990936	     16.96480153	      5.56141158	     -3.94698800	     30.91057879	     -7.05520086	     -4.06102688	     19.99575170	     19.99575170	      3.38722413	     -6.26410692	      6.57649303	     -8.52649993	      7.82791918	      4.64753248	     38.79573058	    -16.43785685	     -3.45775498	     95.77069233	     44.39276951	      0.00000000	      0.00000000	    -11.60969031	     -7.56694796	      2.56915199	     31.30102503	     44.59606784	      0.00000000	      0.00000000
     25.75678571	     -4.78136381	     -4.58631113	      4.52478451	      0.85389933	      0.91916207	      0.48853567	     -0.20453306	      3.82579186	    -18.38829102	     11.84112521	     11.84112521	     17.82012370	      4.62047195	     -3.41514103	     30.65798841	     -6.73966066	     -3.01304321	     20.85412540	     20.85412540	      2.84446024	     -8.10684494	      6.06561398	     -8.31288996	      7.65772482	      4.75609243	     38.03758816	    -16.97023660	     -2.72735469	     96.37822974	     44.36703583	      0.00000000	      0.00000000	    -11.36159555	     -7.73019949	      2.07704122	     32.07244695	     44.69324297	      0.00000000	      0.00000000
     25.77071429	     -4.70709339	     -4.49134027	      4.23034572	      0.85474907	      0.91788538	      0.48660467	     -0.49062497	      3.54262090	    -17.73523696	     12.55835102	     12.55835102	     18.58085506	      3.99128135	     -2.88184090	     30.24468296	     -6.47079103	     -2.44133903	     21.69177110	     21.69177110	      2.61047879	     -9.30040082	      5.41907522	     -8.26235634	      7.40382801	      4.73979124	     37.17794886	    -17.23925897	     -2.20913846	     96.46531852	     44.36697002	      0.00000000	      0.00000000	    -11.02356716	     -7.89784285	      1.54346971	     32.57288027	     44.79832556	      0.00000000	      0.00000000
     25.78464286	     -4.57963366	     -4.39272749	      3.99705275	      0.85564105	      0.91696184	      0.48435462	     -0.80394045	      3.22841161	    -17.12359621	     13.35563990	     13.35563990	     19.46850534	      3.41707124	     -1.68751547	     29.81992483	     -6.17571942	     -1.89640633	     22.48225046	     22.48225046	      2.37193626	    -10.52898664	      4.30175489	     -8.29312978	      7.18144586	      4.55562932	     36.30223293	    -17.42408349	     -1.60177942	     96.34013021	     44.41571534	      0.00000000	      0.00000000	    -10.53975132	     -7.88099083	      0.19898438	     32.94156071	     45.05757565	      0.00000000	      0.00000000
     25.79857143	     -4.38571489	     -4.25603261	      3.81018725	      0.85656181	      0.91650462	      0.48195752	     -1.25226199	      2.85214131	    -16.79492316	     13.98237653	     13.98237653	     19.77848958	      3.14017838	     -1.81528102	     29.40766486	     -5.91570791	     -1.66837371	     23.36794854	     23.36794854	      2.78198674	    -11.13612143	      4.03265979	     -8.38184797	      6.91552948	      4.31024363	     35.22268518	    -17.37326945	     -1.36267293	     95.91907072	     44.42127840	      0.00000000	      0.00000000	     -9.98374066	     -8.08397517	      0.08093702	     33.12333330	     45.08546180	      0.00000000	      0.00000000
     25.81250000	     -4.39367566	     -4.08746078	      3.63477506	      0.85715989	      0.91604484	      0.47925342	     -1.11237986	      2.32543400	    -16.23792561	     15.28116753	     15.28116753	     20.11387380	      2.28700854	     -1.93471254	     29.25321618	     -5.52074019	     -1.24876796	     24.20544962	     24.20544962	      3.17579152	    -12.22436845	      3.91866095	     -8.26466410	      6.64020959	      4.31204191	     33.96677063	    -17.82697652	     -1.04023045	     95.16316495	     44.44115560	      0.00000000	      0.00000000	     -9.22215853	     -8.21235417	     -0.26040885	     33.41245244	     45.15210891	      0.00000000	      0.00000000
     25.82642857	     -4.29280149	     -3.90856420	      3.50317900	      0.85795157	      0.91623700	      0.47633339	     -1.19105722	      1.79786841	    -15.81670359	     16.38822480	     16.38822480	     20.25026567	      1.66053312	     -2.01551725	     28.89595252	     -5.13920906	     -0.97977919	     24.85471970	     24.85471970	      3.70284088	    -13.04062578	      3.85464694	     -8.27215454	      6.39188085	      4.16762244	     32.53123787	    -18.08449798	     -0.72052650	     94.42637770	     44.45931637	      0.00000000	      0.00000000	     -8.47198554	     -8.33166595	     -0.64388922	     33.64792398	     45.22311317	      0.00000000	      0.00000000
     25.84035714	     -4.20031498	     -3.73547242	      3.36584518	      0.85879123	      0.91677170	      0.47327968	     -1.18002469	      1.22119529	    -15.51518354	     17.63805113	     17.63805113	     20.26916133	      1.13713130	     -2.21435564	     28.48938353	     -4.78816037	     -0.87577974	     25.38385081	     25.38385081	      4.32771796	    -13.69849690	      3.82263628	     -8.25515414	      6.15725354	      4.04357446	     30.95629325	    -18.36221586	     -0.48146679	     93.52512119	     44.48322723	      0.00000000	      0.00000000	     -7.70103890	     -8.44921596	     -1.04818799	     33.92370168	     45.29521831	      0.00000000	      0.00000000
     25.85428571	     -4.05260304	     -3.60403368	      3.28080279	      0.85973145	      0.91774034	      0.47006137	     -1.16284564	      0.65456884	    -15.29854883	     18.99558286	     18.99558286	     20.05705995	      0.71741876	     -2.50035136	     27.95643051	     -4.46581436	     -0.74962098	     25.77941428	     25.77941428	      4.99133462	    -14.14000082	      3.79529433	     -8.31003539	      5.99098056	      3.86823384	     29.16407642	    -18.49591099	     -0.26373512	     92.53190482	     44.50786596	      0.00000000	      0.00000000	     -6.94009215	     -8.55089775	     -1.42730907	     34.24904754	     45.36164602	      0.00000000	      0.00000000
     25.86821429	     -4.02274555	     -3.44245850	      3.17201382	      0.86055682	      0.91874431	      0.46668737	     -0.76405021	     -0.04401898	    -15.06406330	     20.80883316	     20.80883316	     19.72375207	      0.17562401	     -3.13288624	     27.44581315	     -4.10135340	     -0.71352949	     25.98171322	     25.98171322	      5.65666445	    -14.49458529	      3.94424971	     -8.26233327	      5.84360500	      3.86937260	     27.21292195	    -18.78193337	     -0.20620123	     91.17049387	     44.55120549	      0.00000000	      0.00000000	     -6.12080814	     -8.59186613	     -2.00138345	     34.73985064	     45.45517594	      0.00000000	      0.00000000
     25.88214286	     -3.97501677	     -3.30603894	      3.03687759	      0.86150378	      0.91992356	      0.46335687	     -0.27479707	     -0.75063511	    -14.86939087	     22.80031050	     22.80031050	     19.13937396	     -0.43821796	     -4.05021483	     26.83349979	     -3.79370254	     -0.79020491	     26.06284777	     26.06284777	      6.33648009	    -14.71249329	      4.11397019	     -8.16651383	      5.69667172	      3.85876950	     25.19276029	    -18.93548594	     -0.25113826	     89.68037443	     44.60176637	      0.00000000	      0.00000000	     -5.38183194	     -8.64004986	     -2.64632410	     35.36676522	     45.55523125	      0.00000000	      0.00000000
     25.89607143	     -3.95506939	     -3.17951823	      2.88703564	      0.86244996	      0.92113275	      0.46002825	      0.26976837	     -1.42263417	    -14.54712863	     24.63862668	     24.63862668	     16.94290072	     -1.90104805	     -8.94156713	     26.23852226	     -3.50434094	     -0.90648524	     26.16597530	     26.16597530	      7.42266125	    -14.63874464	      5.25101814	     -8.09398995	      5.55869326	      3.52606168	     23.36730432	    -18.64818237	     -0.43131137	     87.52916986	     44.73826278	      0.00000000	      0.00000000	     -5.01994925	     -8.27785375	     -5.96339206	     36.62741968	     45.99713255	      0.00000000	      0.00000000
     25.91000000	     -3.95008987	     -3.09357157	      2.71950848	      0.86333134	      0.92226916	      0.45669810	      1.22361928	     -2.15322654	    -14.22917779	     27.30914744	     27.30914744	     15.93096725	     -2.98261958	    -10.06209862	     25.55687791	     -3.25818271	     -1.05533966	     26.04320094	     26.04320094	      7.90089802	    -14.71804916	      5.03317905	     -8.00414565	      5.50013423	      3.58858712	     21.20916052	    -18.67927212	     -0.61451806	     85.53649676	     44.81174010	      0.00000000	      0.00000000	     -4.33595381	     -8.40095913	     -6.31060059	     37.65841561	     46.05131831	      0.00000000	      0.00000000
